<?xml version="1.0" encoding="utf-8"?>
<!-- Generator: Adobe Illustrator 19.0.0, SVG Export Plug-In . SVG Version: 6.00 Build 0)  -->
<svg version="1.1" id="Layer_1" xmlns="http://www.w3.org/2000/svg" xmlns:xlink="http://www.w3.org/1999/xlink" x="0px" y="0px"
	 viewBox="0 0 300 300" style="enable-background:new 0 0 300 300;" xml:space="preserve">
<style type="text/css">
	.st0{fill:#024D6A;}
	.st1{fill:#0B172B;}
	.st2{fill:#EFDE95;}
	.st3{fill:none;stroke:#F2E4A9;stroke-miterlimit:10;}
	.st4{fill:none;stroke:#EFDE95;stroke-width:1.5;stroke-miterlimit:10;}
	.st5{fill:none;stroke:#0B172B;stroke-width:0.5;stroke-miterlimit:10;}
	.st6{fill:#F2E4A9;}
</style>
<circle id="XMLID_6_" class="st0" cx="150" cy="148.6" r="133.7"/>
<g id="XMLID_80_">
	<rect id="XMLID_50_" x="148.2" y="146.4" class="st1" width="3.2" height="2.2"/>
	<rect id="XMLID_51_" x="146.4" y="148.4" class="st1" width="7.1" height="2.2"/>
	<polygon id="XMLID_61_" class="st2" points="102,216.4 107,218.8 148.1,218.8 192.9,218.8 198,216.4 	"/>
	<rect id="XMLID_58_" x="88.3" y="223.4" class="st2" width="123.8" height="1.7"/>
	<rect id="XMLID_59_" x="86.9" y="223" class="st2" width="126.3" height="0.9"/>
	<g id="XMLID_1_">
		<line id="XMLID_3_" class="st3" x1="149.9" y1="142.1" x2="150" y2="80.7"/>
		<line id="XMLID_2_" class="st3" x1="166.5" y1="82.6" x2="150" y2="143.5"/>
		<polyline id="XMLID_7_" class="st3" points="194.7,99.2 150.8,142.8 181.3,89 		"/>
		<line id="XMLID_5_" class="st3" x1="151.1" y1="143.5" x2="204.6" y2="112.3"/>
		<line id="XMLID_8_" class="st3" x1="152.9" y1="142.8" x2="210.8" y2="127.4"/>
		<line id="XMLID_9_" class="st3" x1="151.8" y1="144.1" x2="212.7" y2="144.1"/>
		<line id="XMLID_10_" class="st3" x1="210.8" y1="160.4" x2="150.8" y2="144.1"/>
		<line id="XMLID_11_" class="st3" x1="204.6" y1="175.6" x2="150" y2="144.1"/>
		<line id="XMLID_12_" class="st3" x1="194.7" y1="188.7" x2="150" y2="144.1"/>
		<line id="XMLID_13_" class="st3" x1="181.9" y1="198.7" x2="150" y2="144.1"/>
		<line id="XMLID_14_" class="st3" x1="166.5" y1="205" x2="150" y2="145"/>
		<line id="XMLID_15_" class="st3" x1="150" y1="207.1" x2="149.9" y2="139.5"/>
		<line id="XMLID_16_" class="st3" x1="133.5" y1="205" x2="151.4" y2="138"/>
		<line id="XMLID_17_" class="st3" x1="118.4" y1="198.7" x2="151.1" y2="142.1"/>
		<line id="XMLID_18_" class="st3" x1="105.2" y1="188.7" x2="151.8" y2="141.8"/>
		<line id="XMLID_19_" class="st3" x1="95.3" y1="175.6" x2="149.5" y2="144.1"/>
		<line id="XMLID_20_" class="st3" x1="89" y1="160.4" x2="149.5" y2="144.1"/>
		<line id="XMLID_21_" class="st3" x1="87.1" y1="144.1" x2="149.5" y2="143.5"/>
		<line id="XMLID_22_" class="st3" x1="89" y1="127.4" x2="149.1" y2="143.5"/>
		<line id="XMLID_23_" class="st3" x1="95.3" y1="112.3" x2="150.8" y2="143.8"/>
		<line id="XMLID_24_" class="st3" x1="105.6" y1="99.1" x2="149.1" y2="142.8"/>
		<line id="XMLID_25_" class="st3" x1="118.4" y1="89" x2="148.8" y2="141.8"/>
		<line id="XMLID_26_" class="st3" x1="133.6" y1="82.6" x2="149.5" y2="141.8"/>
		<circle id="XMLID_4_" class="st1" cx="101.9" cy="96.1" r="3.7"/>
		<circle id="XMLID_27_" class="st1" cx="116.2" cy="85.3" r="3.7"/>
		<circle id="XMLID_28_" class="st1" cx="132.4" cy="78.4" r="3.7"/>
		<circle id="XMLID_29_" class="st1" cx="150" cy="75.9" r="3.7"/>
		<circle id="XMLID_30_" class="st1" cx="167.4" cy="78.4" r="3.7"/>
		<circle id="XMLID_31_" class="st1" cx="183.7" cy="85.3" r="3.7"/>
		<circle id="XMLID_32_" class="st1" cx="197.8" cy="95.9" r="3.7"/>
		<circle id="XMLID_33_" class="st1" cx="208.4" cy="110" r="3.7"/>
		<circle id="XMLID_34_" class="st1" cx="215.1" cy="126.5" r="3.7"/>
		<circle id="XMLID_35_" class="st1" cx="217.5" cy="144.1" r="3.7"/>
		<circle id="XMLID_36_" class="st1" cx="208.4" cy="177.9" r="3.7"/>
		<circle id="XMLID_37_" class="st1" cx="197.7" cy="191.9" r="3.7"/>
		<circle id="XMLID_38_" class="st1" cx="183.6" cy="202.8" r="3.7"/>
		<circle id="XMLID_39_" class="st1" cx="167.1" cy="209.5" r="3.7"/>
		<circle id="XMLID_40_" class="st1" cx="150" cy="211.7" r="3.7"/>
		<circle id="XMLID_41_" class="st1" cx="132.7" cy="209.5" r="3.7"/>
		<circle id="XMLID_42_" class="st1" cx="116.3" cy="202.8" r="3.7"/>
		<circle id="XMLID_43_" class="st1" cx="102.4" cy="191.9" r="3.7"/>
		<circle id="XMLID_44_" class="st1" cx="91.6" cy="178" r="3.7"/>
		<circle id="XMLID_45_" class="st1" cx="84.8" cy="161.5" r="3.7"/>
		<circle id="XMLID_46_" class="st1" cx="82.5" cy="144.1" r="3.7"/>
		<circle id="XMLID_47_" class="st1" cx="84.8" cy="126.6" r="3.7"/>
		<circle id="XMLID_48_" class="st1" cx="91.3" cy="110.1" r="3.7"/>
		<circle id="XMLID_49_" class="st1" cx="150" cy="143.4" r="3.7"/>
		<polygon id="XMLID_54_" class="st3" points="126.2,85.6 122.4,96.1 111.5,94.2 111.2,104.7 100.3,105.4 101.9,115.9 91.6,119.8 
			96.6,129.4 87.6,136 94.4,144.1 87.9,152.2 96.7,158.3 91.6,168.2 101.9,171.5 100.5,182.7 110.9,183 112.1,194.5 122.4,191.9 
			126.3,202.3 135.5,197.6 141.4,206.4 150,199.7 158.2,206.6 164.5,197.6 173.5,202.3 177.9,191.9 188,194.1 189,183 199.6,182.7 
			197.7,171.5 208.4,168.4 203.2,158.4 212.1,152.7 204.6,144.1 212.1,135.4 203.2,129.4 208.4,119.9 198.4,115.9 200.1,105.4 
			189.4,104.5 188.1,93.7 177.4,95.9 174,85.8 164.5,90.1 158.2,81.6 150,88.2 141.6,81.6 135.6,90.1 		"/>
		<circle id="XMLID_55_" class="st1" cx="215.1" cy="161.5" r="3.7"/>
		<ellipse id="XMLID_56_" class="st4" cx="150.1" cy="144" rx="63.5" ry="63.1"/>
		<circle id="XMLID_57_" class="st4" cx="149.7" cy="143.5" r="55"/>
		<polyline id="XMLID_52_" class="st1" points="150.8,149.6 156.5,176.4 160,195.6 162.2,213.2 163.4,223.5 160.9,213.2 
			157.1,195.6 153.6,177.2 149.9,149.6 		"/>
		<polyline id="XMLID_53_" class="st1" points="150.2,148.9 146.4,176.1 142.9,195.3 138.9,212.6 136.5,222.6 137.7,212.1 
			140.2,194.3 143.3,175.8 149.5,148.6 		"/>
		<line id="XMLID_62_" class="st5" x1="107" y1="223.5" x2="107" y2="216.4"/>
		<path id="XMLID_60_" class="st5" d="M107,219.5"/>
		<line id="XMLID_63_" class="st5" x1="112.3" y1="223.5" x2="112.3" y2="216.4"/>
		<line id="XMLID_64_" class="st5" x1="117.7" y1="223.5" x2="117.7" y2="216.4"/>
		<line id="XMLID_65_" class="st5" x1="123.1" y1="223.5" x2="123.1" y2="216.4"/>
		<line id="XMLID_66_" class="st5" x1="128.5" y1="223.5" x2="128.5" y2="216.4"/>
		<line id="XMLID_67_" class="st5" x1="133.8" y1="223.5" x2="133.8" y2="216.4"/>
		<line id="XMLID_68_" class="st5" x1="139.3" y1="223.5" x2="139.3" y2="216.4"/>
		<line id="XMLID_69_" class="st5" x1="144.5" y1="223.5" x2="144.5" y2="216.4"/>
		<line id="XMLID_70_" class="st5" x1="149.9" y1="223.5" x2="149.9" y2="216.4"/>
		<line id="XMLID_71_" class="st5" x1="155.3" y1="223.5" x2="155.3" y2="216.4"/>
		<line id="XMLID_72_" class="st5" x1="160.7" y1="223.5" x2="160.7" y2="216.4"/>
		<line id="XMLID_73_" class="st5" x1="166.1" y1="223.3" x2="166.1" y2="216.2"/>
		<line id="XMLID_74_" class="st5" x1="171.5" y1="223.5" x2="171.5" y2="216.4"/>
		<line id="XMLID_75_" class="st5" x1="176.8" y1="223.5" x2="176.8" y2="216.4"/>
		<line id="XMLID_76_" class="st5" x1="182.2" y1="223.5" x2="182.2" y2="216.4"/>
		<line id="XMLID_77_" class="st5" x1="187.6" y1="223.6" x2="187.6" y2="216.5"/>
		<line id="XMLID_78_" class="st5" x1="193" y1="223.5" x2="193" y2="216.4"/>
		<rect id="XMLID_79_" x="102" y="215.6" class="st6" width="96" height="0.8"/>
	</g>
</g>
</svg>
