<?xml version="1.0" encoding="utf-8"?>
<!-- Generator: Adobe Illustrator 19.0.0, SVG Export Plug-In . SVG Version: 6.00 Build 0)  -->
<svg version="1.1" id="Layer_1" xmlns="http://www.w3.org/2000/svg" xmlns:xlink="http://www.w3.org/1999/xlink" x="0px" y="0px"
	 viewBox="0 0 300 300" style="enable-background:new 0 0 300 300;" xml:space="preserve">
<style type="text/css">
	.st0{fill:#024D6A;}
	.st1{fill:#F2E4A8;}
</style>
<circle id="XMLID_6_" class="st0" cx="149.8" cy="151.3" r="133.7"/>
<g id="XMLID_1_">
	<path id="XMLID_14_" class="st1" d="M170.7,140.3c-4.5,5.7-8.9,11.1-13.1,16.5c12.3,13.3,24.5,26.4,38.3,41l14.9,15.8l5.4,6.3
		c1.7,2,1.5,5.1-0.5,6.8l-9.9,8.5c-2,1.7-5.1,1.5-6.8-0.5l-5.1-6l0,0l-13.5-17.9c-10.7-14.3-21.3-28.1-32-41.9
		c-11.5,14.8-22.7,29.4-35.3,45.9l-13.1,17.2l-5.3,6.4c-1.7,2-4.8,2.3-6.8,0.6l-10-8.4c-2-1.7-2.3-4.8-0.6-6.8l5.1-6l0,0l15.5-16.3
		c14.3-14.8,27.8-29.5,41.6-44.3c-5.8-7.5-11.5-15.1-17.3-22.8c-4.2,2.4-11.2,5.2-19.5,4c-5.3-0.8-9.1-2.9-10.8-3.9
		c-4.2-2.4-6.6-5-9.5-8.1c-2.7-2.9-8.1-8.8-12.2-18.3c-2.7-6.4-3.7-11.5-4.3-14.7c-0.7-3.6-1.1-6.3-0.8-10c0.2-2.8,0.6-7,3.5-11.4
		c0.8-1.3,3.5-5.3,8.5-7.5c2-0.9,5.7-2,13.8-0.6c11,1.9,19,6.6,22.6,8.9c5.4,3.5,13.5,8.7,18.9,18.9c1.6,3,4.6,8.7,4.7,16.7
		c0,2.6,0.1,7.6-2.6,13.2c-1.1,2.3-2.3,4.1-3.6,5.6c6.2,6.9,12.2,13.5,18,19.9c4.4-4.6,8.8-9.3,13.2-13.9l-5.4-4.4
		c-3.8-3.1-4.4-8.8-1.3-12.6l2-2.5c0.3-0.4,0.7-0.8,1.1-1.1l0,0l44.5-49.2c0.7-0.7,1.8-0.8,2.6-0.2h0c0.8,0.7,0.9,1.8,0.3,2.6
		l-30.9,39c-0.6,0.8-0.5,2,0.3,2.6l0.9,0.7c0.8,0.6,1.9,0.6,2.6-0.2l33.8-37.2c0.7-0.7,1.8-0.8,2.6-0.2l0,0c0.8,0.6,1,1.8,0.3,2.6
		l-31.2,39.2c-0.6,0.8-0.5,2,0.3,2.6l1,0.8c0.8,0.6,1.9,0.5,2.6-0.2l34.7-38.4c0.7-0.7,1.8-0.8,2.6-0.2l0.1,0.1
		c0.8,0.6,0.9,1.8,0.3,2.6l-32.5,40.8c-0.6,0.8-0.5,1.9,0.2,2.6l0.6,0.5c0.8,0.7,1.9,0.6,2.6-0.1l35.2-38.6c0.6-0.7,1.7-0.8,2.5-0.2
		l0,0c0.9,0.6,1,1.8,0.4,2.7L192.3,141l-1.5,2l-1,1.3c-3.1,3.8-8.8,4.4-12.6,1.3L170.7,140.3z"/>
	<path id="XMLID_8_" class="st1" d="M192.3,141c-0.2,0.2-0.3,0.5-0.5,0.7l-1,1.2L192.3,141z"/>
</g>
</svg>
