<?xml version="1.0" encoding="utf-8"?>
<!-- Generator: Adobe Illustrator 19.0.0, SVG Export Plug-In . SVG Version: 6.00 Build 0)  -->
<svg version="1.1" id="Layer_1" xmlns="http://www.w3.org/2000/svg" xmlns:xlink="http://www.w3.org/1999/xlink" x="0px" y="0px"
	 viewBox="0 0 300 300" style="enable-background:new 0 0 300 300;" xml:space="preserve">
<style type="text/css">
	.st0{fill:#024D6A;}
	.st1{fill:none;stroke:#F2E4A8;stroke-width:5;stroke-miterlimit:10;}
</style>
<circle id="XMLID_6_" class="st0" cx="152.1" cy="147.1" r="133.7"/>
<g id="XMLID_5_">
	<path id="XMLID_11_" class="st1" d="M120,78c-2.6,2.2-5,4.6-7.2,7.3L101.9,73c-1.9-2.1-1.7-5.3,0.4-7.2c1-0.9,2.2-1.3,3.4-1.3
		c1.4,0,2.8,0.6,3.8,1.7L120,78z"/>
	<path id="XMLID_10_" class="st1" d="M211.1,175.6c-1,0.9-2.2,1.3-3.4,1.3c-1.4,0-2.8-0.6-3.8-1.7l-9.2-10.3
		c2.6-2.2,4.9-4.7,7.1-7.4l9.7,10.9C213.3,170.5,213.2,173.7,211.1,175.6z"/>
	<path id="XMLID_9_" class="st1" d="M103.5,74.8c-11.2,12.4-17.9,28.8-17.9,46.7c0,38.6,31.3,69.9,69.9,69.9c18,0,34.5-6.8,46.9-18"
		/>
	<circle id="XMLID_2_" class="st1" cx="156.8" cy="121.5" r="57.2"/>
	<path id="XMLID_3_" class="st1" d="M127.6,73.4c1.5,2.3,3.1,3.5,4.2,4.2c0.9,0.6,2,1,2.6,1.3c2.4,1.1,2.7,0.8,3.7,1.5
		c0.9,0.6,1.6,1.4,2.9,3.1c0.9,1.1,0.7,1.1,1.8,2.4c1.2,1.6,1.5,1.7,1.5,2.2c0.1,1.5-1.9,2.8-2.6,3.3c-0.6,0.4-1.4,0.9-2.6,1.1
		c-1.7,0.3-3.8-0.2-5-1.5c-0.8-0.9-0.6-1.3-1.3-1.8c-1-0.6-1.7,0-4.2,0c-2.2,0-2.7-0.5-3.7,0c-0.6,0.3-1,0.8-1.8,1.8
		c-1,1.2-1.5,2.3-2,3.1c-0.7,1.3-0.6,1.3-1.1,2.2c-0.6,1-1.2,1.7-2,2.6c-1.5,1.8-1.6,1.5-2,2.2c-0.2,0.4-0.5,0.9-0.4,4.4
		c0,3.4,0.3,3.9,0.4,4.2c0.6,0.9,0.9,0.5,2.6,2.2c1.2,1.2,2.4,2.6,2.4,2.6l0,0c1.1,0.6,2.1,0.8,3.1,0.9c1.3,0.1,1.7-0.2,4.2-0.4
		c2.3-0.2,3-0.1,3.3,0c0.7,0.2,1.8,0.4,2.6,1.3c0.8,0.9,0.9,1.9,1.1,2.9c0.2,1.5-0.1,1.7,0,3.3c0.1,1.3,0.3,2.2,0.9,4
		c0.4,1.2,0.7,2.2,1.3,3.7c0.8,2.2,1,2.3,1.1,3.1c0.3,1.5-0.1,1.7,0.2,3.3c0.1,0.7,0.2,0.6,0.9,2.9c0.5,1.5,0.4,1.3,0.9,3.1
		c0.6,2,0.6,2,0.7,2.4c0,1.5-0.7,1.8-0.4,2.9c0.3,1.1,1.4,1.6,1.8,1.8c1.1,0.4,2,0.2,2.6,0c0.5-0.1,1.5-0.4,2.2-1.3
		c0.7-1,0.1-1.6,0.7-3.3c0.2-0.7,0.3-0.4,2-3.5c0,0,0.1-0.2,1.3-2.4l0,0c0.9-1.6,1.8-2.9,2.4-3.7c0.6-0.8,1-1.3,1.8-2.4
		c0.9-1.3,1.3-2,1.5-2.9c0.3-0.9,0.2-1.7,0.2-2.9c0-0.9-0.1-1.1-0.2-2.4c-0.2-2.2-0.3-3.3,0-4c0.4-0.9,0.9-0.7,2.6-2
		c1.1-0.8,0.9-0.9,3.3-3.3c1.8-1.8,1.9-1.8,2.6-2.6c0.2-0.3,1.1,0.6,2.9-2.2c1.2-1.9,1.2-1.9,0.4-3.7c0,0-0.1-0.3-1.5-1.8l0,0
		c-0.9,0.4-1.8,0.9-2.6,1.3l0,0c-0.6,0.5-1.5,1.1-2.9,1.5c-1.1,0.3-2,0.6-2.9,0.2c-0.6-0.3-1-1.2-1.8-3.1c-0.5-1.3-0.5-1.5-1.1-2.9
		c-0.5-1.1-0.7-1.6-1.1-2.2c-0.7-1-1-1-1.3-1.8c-0.1-0.2-0.2-0.5-0.2-2.4c0-1.5,0-1.5,0-2.6c0-1.8-0.2-1.9,0-2.4
		c0.5-1.3,1.8-1.9,2-2c0,0,0.6-0.2,3.3-0.2l0,0c1.7,0.2,3.1,0.1,4.2,0c0.4,0,1.9-0.2,3.7-0.7c1.2-0.3,1.4,1.2,4,0.4
		c0.7-0.2,2.8-1.1,4.2-1.5c1.6-0.5,0.1-1.5,0.4-1.8c0.8-0.7,0.6-1.3,1.3-2.4c0.9-1.5,2.4-2.3,3.1-2.6c1.1-0.5,1-0.2,3.5-1.1
		c1.9-0.7,2.8-1.2,3.1-1.3c1-0.6,1.7-1.1,2.2-1.5"/>
	<path id="XMLID_4_" class="st1" d="M211.7,109.9c-1.9,0.4-3.4,0.2-4.4,0c-1.9-0.5-2.2-1.2-4-1.3c-1.8-0.1-4,0.4-4,0.4l0,0
		c-1.9,1.2-3.5,1.5-4.6,1.5c-1,0-1.7-0.2-2.2,0.2c-0.4,0.3-0.5,0.9-0.7,3.7c-0.1,1.8-0.1,2.2-0.4,2.4c-0.8,0.6-2.9-0.2-2.9-0.2l0,0
		c-0.4-0.3-1.7-1.1-2.6-0.7c-0.8,0.4-0.8,1.8-0.9,4.2c0,1.4,0.1,2.4,0.2,3.5c0.2,1.4,0.2,2.1,0.4,2.9c0.4,1.3,0.7,1.6,1.3,3.5
		c0.5,1.4,0.7,2.1,0.4,2.4c-0.6,0.8-2.3-0.2-3.7,0.9c-0.6,0.4-1.2,1.2-1.1,2c0.1,0.8,0.8,0.9,1.5,2c0.8,1.3,0.2,1.8,0.9,3.3
		c0.8,1.7,1.9,1.5,2.6,3.3c0.3,0.6,0.8,1.8,0.2,2.9c-0.5,0.9-1.6,1.3-2.4,1.3c-0.6,0-1.1-0.2-2.6-1.3c-2.4-1.7-2.6-2-3.7-2.6
		c-1.1-0.6-2-1-3.1-1.3c-1.6-0.5-2.3-0.8-3.1-0.7c-1,0.2-0.9,0.7-2.6,1.5c0,0-0.3,0.1-2.4,0.9l0,0c-0.8,0.9-2.1,2.8-1.5,4
		c0.1,0.2,0.3,0.4,2.4,1.5c0.8,0.4,1.5,0.8,2.4,1.3c1.9,1.1,2.1,1.3,2.2,1.5c0.3,0.6,0.2,1.3,0,2.6c-0.4,2.2-0.8,2.2-0.7,3.1
		c0.2,1.3,1.1,1.2,2.2,3.3c0.6,1.1,0.9,2.1,1.1,2.9c0.5,1.8,0.2,1.9,0.7,2.9c0.7,1.6,2.2,2.9,2.2,2.9l0,0c0,0,1.9,2.2,2.4,2.9"/>
	<line id="XMLID_7_" class="st1" x1="162.6" y1="191" x2="162.6" y2="205.8"/>
	<line id="XMLID_8_" class="st1" x1="150" y1="191.4" x2="150" y2="205.8"/>
	<path id="XMLID_17_" class="st1" d="M217.5,230.5c-1.7,0.2-2.4,0-2.8,0c-5.5-0.2-109.1-0.7-115.2-0.6c-0.3,0-3-0.2-4.3-0.8
		c-1.3-0.6-0.8-1-0.9-1.5c-0.5-3.4,9-10.2,20.8-15c12.6-5.1,23.6-5.9,31.2-6.4c8.7-0.6,15-0.1,21.4,0.4c10.4,0.8,23.3,1.6,34.7,7
		c11.6,5.5,17,11.8,18.8,13.9C224.9,231.9,218.6,230.4,217.5,230.5z"/>
</g>
</svg>
