<?xml version="1.0" encoding="utf-8"?>
<!-- Generator: Adobe Illustrator 19.0.0, SVG Export Plug-In . SVG Version: 6.00 Build 0)  -->
<svg version="1.1" id="Layer_1" xmlns="http://www.w3.org/2000/svg" xmlns:xlink="http://www.w3.org/1999/xlink" x="0px" y="0px"
	 viewBox="0 0 300 300" style="enable-background:new 0 0 300 300;" xml:space="preserve">
<style type="text/css">
	.st0{fill:#024D6A;}
	.st1{fill:none;stroke:#F2E4A8;stroke-width:5;stroke-miterlimit:10;}
	.st2{fill:#F2E4A8;}
</style>
<circle id="XMLID_6_" class="st0" cx="150.7" cy="145.5" r="133.7"/>
<g id="XMLID_1_">
	<path id="XMLID_21_" class="st1" d="M126.3,203.3c-0.7,0.1-2.6,0.2-4.6-0.9c-2.1-1.1-3-2.9-3.3-3.5c-0.4-0.7-2.2-4.3-0.4-7.9
		c1.7-3.5,5.3-4.2,6.4-4.4c1-0.2,1.9-0.2,2.8-0.1c1.7,0.2,2.9,0.7,3.7,1c4.5,2,6.4,6.2,6.9,7.2c0.3,0.7,0.5,1.3,0.7,2
		c0.4,1.6,0.5,3.2,0.4,4.7c-0.1,1.6-0.4,3.1-0.6,4.5c-0.6,3.2-1.5,8-5.5,11.2c-2.6,2.1-5.3,2.6-6.6,2.8c-4.8,0.8-8.5-1-9.7-1.6
		c-1-0.5-4.5-2.4-7.1-6.5c-2-3.2-2.5-6.2-2.9-8.2c-0.4-2-0.4-3.5-0.4-4.2c-0.1-1.7-0.1-4-0.1-6.6c0-9.4,0.3-22.7,0.3-23.5
		c2.7-2.5,5.5-5,8.2-7.5c-2.9-2.2-5.9-4.3-8.8-6.5c0,0,0-3.4,0-3.5c0-2.5,0.8-49.1,0-65.7c0-0.9-0.2-2.9-1.1-5.1
		c-2.4-5.6-7.8-7.9-8.8-8.4c-1.4-0.6-4.6-1.9-8.8-1.2c-0.8,0.1-4.2,0.8-7.5,3.7c-5.8,5.2-6,12.7-6,13.3c0,1.4,0.1,8.1,5.1,12.6
		c1.1,1,5.7,5.2,10.4,3.3c4.1-1.6,5-6.5,5.1-6.8c0.1-0.5,1-5.7-2.4-8.4c-2.2-1.7-4.9-1.3-5.5-1.2"/>
	<path id="XMLID_3_" class="st1" d="M88.2,70.9c36.9,0.2,73.9,0.5,110.8,0.7"/>
	<path id="XMLID_4_" class="st1" d="M188,70.9"/>
	<path id="XMLID_5_" class="st1" d="M193,71.6c1.2-0.2,6.2-0.6,8.9,0.5c2.9,1.1,4.5,3.1,5.5,4.4c2.3,2.9,3,6,3.5,8.2
		c0,0,0.1,0.5,0.7,5.8l0,0c-2.6,0.2-5.2,0.5-7.7,0.7l0,0c-1.7,0.5-2.4,1.2-2.7,1.9c-0.6,1.4,0,3.7,0,3.7l0,0c0.1,0.1,7,5.5,7,5.5
		c0.9,0.7,0.9,0.7,0.9,0.7c0.7,0.5,0.7,0.5,0.8,0.6c0.3,1.1-9.4,5.1-9.5,5.1l0,0c3.5,3.1,6.9,6.2,10.4,9.3l0,0
		c0,0,0.4,65.9,0.4,65.9l0,0c0,0,0,1,0,2.8"/>
	<path id="XMLID_9_" class="st1" d="M210.9,186c2.3,0.3,7.6,1,9.6,2.6c1.3,1,3.3,2.7,5.1,5.6c0.9,1.5,2.4,4,2.7,7.5
		c0.3,4.4-1.4,7.7-2.2,9.1c-0.6,1-2.5,4.3-6.4,6.5c-3.4,1.9-6.7,2.1-8,2.1c-30.7,0.9-85.4,0.7-85.4,0.7c-2,0-3.5,0-4.2,0"/>
	<path id="XMLID_8_" class="st1" d="M212.7,186.7"/>
	<line id="XMLID_10_" class="st1" x1="212.7" y1="186" x2="127.1" y2="186.4"/>
	<line id="XMLID_11_" class="st1" x1="86.4" y1="104.7" x2="105.8" y2="104.7"/>
	<path id="XMLID_7_" class="st2" d="M189.5,97.1h-47.9c-1.1,0-2.1-0.9-2.1-2.1v-0.6c0-1.1,0.9-2.1,2.1-2.1h47.9
		c1.1,0,2.1,0.9,2.1,2.1V95C191.5,96.1,190.6,97.1,189.5,97.1z"/>
	<path id="XMLID_12_" class="st2" d="M189.5,113.8h-60.3c-1.1,0-2.1-0.9-2.1-2.1v-0.6c0-1.1,0.9-2.1,2.1-2.1h60.3
		c1.1,0,2.1,0.9,2.1,2.1v0.6C191.5,112.8,190.6,113.8,189.5,113.8z"/>
	<path id="XMLID_13_" class="st2" d="M189.5,130.5h-60.3c-1.1,0-2.1-0.9-2.1-2.1v-0.6c0-1.1,0.9-2.1,2.1-2.1h60.3
		c1.1,0,2.1,0.9,2.1,2.1v0.6C191.5,129.6,190.6,130.5,189.5,130.5z"/>
	<path id="XMLID_14_" class="st2" d="M189.5,147.9h-60.3c-1.1,0-2.1-0.9-2.1-2.1v-0.6c0-1.1,0.9-2.1,2.1-2.1h60.3
		c1.1,0,2.1,0.9,2.1,2.1v0.6C191.5,147,190.6,147.9,189.5,147.9z"/>
	<path id="XMLID_15_" class="st2" d="M189.5,164.1h-60.3c-1.1,0-2.1-0.9-2.1-2.1v-0.6c0-1.1,0.9-2.1,2.1-2.1h60.3
		c1.1,0,2.1,0.9,2.1,2.1v0.6C191.5,163.2,190.6,164.1,189.5,164.1z"/>
	<path id="XMLID_23_" class="st2" d="M193.2,199c0,0.6-0.2,1.2-0.7,1.6c-0.4,0.4-1,0.7-1.6,0.7h-52.3c0.1-1.5,0-3-0.4-4.7H191
		C192.2,196.6,193.2,197.7,193.2,199z"/>
	<ellipse id="XMLID_2_" class="st2" cx="129.4" cy="95.2" rx="2.8" ry="3"/>
	<ellipse id="XMLID_16_" class="st2" cx="203.4" cy="199" rx="2.8" ry="3"/>
	<ellipse id="XMLID_17_" class="st2" cx="86.3" cy="87.9" rx="3.7" ry="2.9"/>
	<ellipse id="XMLID_18_" class="st2" cx="125.8" cy="203.3" rx="3.7" ry="2.9"/>
</g>
</svg>
