<?xml version="1.0" encoding="utf-8"?>
<!-- Generator: Adobe Illustrator 19.0.0, SVG Export Plug-In . SVG Version: 6.00 Build 0)  -->
<svg version="1.1" id="Layer_1" xmlns="http://www.w3.org/2000/svg" xmlns:xlink="http://www.w3.org/1999/xlink" x="0px" y="0px"
	 viewBox="0 0 300 300" style="enable-background:new 0 0 300 300;" xml:space="preserve">
<style type="text/css">
	.st0{fill:#024D6A;}
	.st1{fill:none;stroke:#F2E4A9;stroke-width:1.9;stroke-miterlimit:10;}
	.st2{fill:none;stroke:#F2E4A9;stroke-width:1.7;stroke-miterlimit:10;}
</style>
<circle id="XMLID_6_" class="st0" cx="149.1" cy="149.1" r="133.7"/>
<path id="XMLID_1_" class="st1" d="M232.1,213.6H67c-0.4,0-0.8-0.4-0.8-0.8v-4.9c0-0.4,0.4-0.8,0.8-0.8h165.1c0.4,0,0.8,0.4,0.8,0.8
	v4.9C232.9,213.2,232.5,213.6,232.1,213.6z"/>
<rect id="XMLID_3_" x="71.2" y="203.1" class="st2" width="14.8" height="4"/>
<rect id="XMLID_4_" x="95.2" y="203.1" class="st2" width="14.8" height="4"/>
<rect id="XMLID_5_" x="118.6" y="203.1" class="st2" width="14.8" height="4"/>
<rect id="XMLID_7_" x="142.8" y="203.1" class="st2" width="14.8" height="4"/>
<rect id="XMLID_8_" x="165.7" y="203.1" class="st2" width="14.8" height="4"/>
<rect id="XMLID_9_" x="189.2" y="203.1" class="st2" width="14.8" height="4"/>
<rect id="XMLID_10_" x="212.8" y="203.1" class="st2" width="14.8" height="4"/>
<rect id="XMLID_32_" x="189.2" y="139.4" class="st2" width="14.8" height="4"/>
<line id="XMLID_53_" class="st1" x1="121.9" y1="153" x2="106" y2="153"/>
<line id="XMLID_50_" class="st1" x1="169.2" y1="153" x2="153.6" y2="153"/>
<polyline id="XMLID_47_" class="st1" points="216.2,153 215.1,153 200.9,153 "/>
<line id="XMLID_46_" class="st1" x1="192.5" y1="153" x2="176.9" y2="153"/>
<line id="XMLID_45_" class="st1" x1="145.1" y1="153" x2="130.4" y2="153"/>
<line id="XMLID_44_" class="st1" x1="98" y1="153" x2="83" y2="153"/>
<polygon id="XMLID_14_" class="st1" points="64.2,123.7 150.1,84.7 234,123.7 234,133.4 64.2,133.4 "/>
<polygon id="XMLID_15_" class="st1" points="149.5,91.6 73.6,127.3 225.4,127.3 "/>
<circle id="XMLID_12_" class="st1" cx="149.2" cy="111.5" r="8.5"/>
<polyline id="XMLID_17_" class="st1" points="67.9,133.4 67.9,139.4 230.9,139.4 230.9,133.4 "/>
<rect id="XMLID_16_" x="212.8" y="139.4" class="st2" width="14.8" height="4"/>
<rect id="XMLID_30_" x="165.7" y="139.4" class="st2" width="14.8" height="4"/>
<rect id="XMLID_28_" x="142" y="139.4" class="st2" width="14.8" height="4"/>
<rect id="XMLID_39_" x="118.6" y="139.4" class="st2" width="14.8" height="4"/>
<rect id="XMLID_43_" x="95.2" y="139.4" class="st2" width="14.8" height="4"/>
<rect id="XMLID_22_" x="71.2" y="139.4" class="st2" width="14.8" height="4"/>
<line id="XMLID_24_" class="st1" x1="74.4" y1="203.1" x2="74.4" y2="143.4"/>
<line id="XMLID_23_" class="st1" x1="83" y1="203.1" x2="83" y2="143.4"/>
<polyline id="XMLID_42_" class="st1" points="98,143.4 98,153 98,203.1 "/>
<polyline id="XMLID_41_" class="st1" points="106.7,143.4 106.7,153 106.7,203.1 "/>
<polyline id="XMLID_38_" class="st1" points="121.9,143.4 121.9,153 121.9,203.1 "/>
<polyline id="XMLID_37_" class="st1" points="130.4,143.4 130.4,153 130.4,203.1 "/>
<polyline id="XMLID_27_" class="st1" points="145.1,143.4 145.1,153 145.1,203.1 "/>
<polyline id="XMLID_26_" class="st1" points="153.6,143.4 153.6,153 153.6,203.1 "/>
<polyline id="XMLID_29_" class="st1" points="169.2,143.4 169.2,153 169.2,203.1 "/>
<polyline id="XMLID_25_" class="st1" points="176.9,143.4 176.9,153 176.9,203.1 "/>
<polyline id="XMLID_31_" class="st1" points="192.5,143.4 192.5,153 192.5,203.1 "/>
<polyline id="XMLID_21_" class="st1" points="200.9,143.4 200.9,153 200.9,203.1 "/>
<line id="XMLID_35_" class="st1" x1="216.2" y1="203.1" x2="216.2" y2="143.4"/>
<line id="XMLID_36_" class="st1" x1="224.8" y1="203.1" x2="224.8" y2="143.4"/>
</svg>
