<?xml version="1.0" encoding="utf-8"?>
<!-- Generator: Adobe Illustrator 19.0.0, SVG Export Plug-In . SVG Version: 6.00 Build 0)  -->
<svg version="1.1" id="Layer_1" xmlns="http://www.w3.org/2000/svg" xmlns:xlink="http://www.w3.org/1999/xlink" x="0px" y="0px"
	 viewBox="0 0 300 300" style="enable-background:new 0 0 300 300;" xml:space="preserve">
<style type="text/css">
	.st0{fill:#024D6A;}
	.st1{fill:#F2E4A8;}
	.st2{fill:#0B172B;}
	.st3{fill:#0D1D32;}
	.st4{fill:#0D141F;}
</style>
<path id="XMLID_46_" class="st0" d="M283.7,150.6c0,41.9-19.3,79.3-49.4,103.8c-5.4,4.4-11.2,8.4-17.3,12
	c-6.2,3.6-12.8,6.8-19.6,9.3c0,0,0,0-0.1,0c-7.5,2.8-15.3,5-23.3,6.5c-7.8,1.4-15.8,2.1-23.9,2.1h-0.6c-0.4,0-0.8,0-1.2,0
	c-6.3-0.1-12.4-0.6-18.4-1.5c-5.9-0.9-11.7-2.2-17.3-3.8c-0.3-0.1-0.6-0.2-0.9-0.3c-55.1-16.5-95.3-67.6-95.3-128.1
	c0-73.8,59.9-133.7,133.7-133.7C223.8,16.9,283.7,76.8,283.7,150.6z"/>
<polygon id="XMLID_2_" class="st1" points="141.8,115.4 129.3,108.5 116.6,114.8 119.3,100.9 109.4,90.8 123.5,89 130,76.4 
	136.1,89.3 150.1,91.6 139.7,101.3 "/>
<polygon id="XMLID_3_" class="st1" points="186.6,99.8 176.6,101.2 172,110.2 167.6,101.1 157.6,99.6 164.9,92.6 163.3,82.6 
	172.2,87.3 181.2,82.7 179.4,92.7 "/>
<polygon id="XMLID_4_" class="st1" points="200.8,141.2 187.7,142.8 181.6,154.5 176.1,142.6 163.1,140.4 172.7,131.4 170.7,118.4 
	182.3,124.8 194,118.9 191.5,131.8 "/>
<path id="XMLID_7_" class="st1" d="M96,77.4c1.8,0.3-2.3,5.2-5,13.9c-1.3,4.2-2.7,9.2-2,15.3c0.9,7.9,4.8,13.1,5.7,14.2
	c4.2,5.4,9.2,7.7,12.2,9.1c7.7,3.4,14.5,3.2,17.6,3.1c4.2-0.2,10.3-1,16.7-4.3c5.2-2.6,10.2-5.1,13.3-10.5c0.9-1.6,1.5-3.2,2.3-3.1
	c1.6,0.2,2.3,7.4,2,13c-0.1,2.4-0.8,9.6-5.1,17.9c-1.7,3.2-6.1,10.8-14.7,17c-18.2,13.1-39.3,8.5-43.1,7.7
	c-5.1-1.1-12.3-2.7-19.3-8.5c-9.3-7.6-13.6-17.7-15.2-23.2c-1.4-4.8-3-14.7,0.2-27c2.8-10.7,8.8-17.6,11.6-20.6
	c4.6-5.1,8.9-7.8,11.9-9.7C88,79.8,93.5,77,96,77.4z"/>
<path id="XMLID_25_" class="st2" d="M234.2,191.9v62.6c-5.4,4.4-11.2,8.4-17.3,12c-6.2,3.6-12.8,6.8-19.6,9.3v-83.9H234.2z"/>
<path id="XMLID_36_" class="st2" d="M197.3,174.1v101.7c0,0,0,0-0.1,0c-7.5,2.8-15.3,5-23.3,6.5c-7.8,1.4-15.8,2.1-23.9,2.1h-0.6
	V174.1H197.3z"/>
<path id="XMLID_32_" class="st2" d="M149.3,205.5v78.9c-0.4,0-0.8,0-1.2,0c-6.3-0.1-12.4-0.6-18.4-1.5c-5.9-0.9-11.7-2.2-17.3-3.8
	v-73.6H149.3z"/>
<path id="XMLID_33_" class="st3" d="M216.9,191.9v74.5c-6.2,3.6-12.8,6.8-19.6,9.3c0,0,0,0-0.1,0v-83.9H216.9z"/>
<path id="XMLID_31_" class="st3" d="M173.8,174.1v108.2c-7.8,1.4-15.8,2.1-23.9,2.1h-0.6c-0.4,0-0.8,0-1.2,0V174.1H173.8z"/>
<path id="XMLID_34_" class="st3" d="M129.7,205.4v77.5c-5.9-0.9-11.7-2.2-17.3-3.8c-0.3-0.1-0.6-0.2-0.9-0.3v-73.4H129.7z"/>
<rect id="XMLID_5_" x="117.1" y="216.6" class="st1" width="8.7" height="8.8"/>
<rect id="XMLID_8_" x="134.8" y="216.6" class="st1" width="8.7" height="8.8"/>
<rect id="XMLID_9_" x="134.8" y="241" class="st1" width="8.7" height="8.8"/>
<rect id="XMLID_10_" x="117.1" y="255.6" class="st4" width="8.7" height="8.8"/>
<rect id="XMLID_11_" x="156.4" y="241" class="st1" width="8.7" height="8.8"/>
<rect id="XMLID_12_" x="183.4" y="255.6" class="st1" width="8.7" height="8.8"/>
<rect id="XMLID_13_" x="156.4" y="184.2" class="st1" width="8.7" height="8.8"/>
<rect id="XMLID_14_" x="183.4" y="200" class="st1" width="8.7" height="8.8"/>
<rect id="XMLID_15_" x="183.4" y="216.6" class="st1" width="8.7" height="8.8"/>
<rect id="XMLID_16_" x="220.7" y="200" class="st1" width="8.7" height="8.8"/>
<rect id="XMLID_17_" x="220.7" y="236.6" class="st1" width="8.7" height="8.8"/>
<rect id="XMLID_18_" x="202.7" y="216.6" class="st1" width="8.7" height="8.8"/>
<rect id="XMLID_19_" x="202.7" y="200" class="st1" width="8.7" height="8.8"/>
<rect id="XMLID_26_" x="183.4" y="236.6" class="st4" width="8.7" height="8.8"/>
<rect id="XMLID_27_" x="156.4" y="200" class="st4" width="8.7" height="8.8"/>
<rect id="XMLID_28_" x="220.7" y="216.6" class="st4" width="8.7" height="8.8"/>
<rect id="XMLID_29_" x="134.8" y="255.6" class="st1" width="8.7" height="8.8"/>
</svg>
