<?xml version="1.0" encoding="utf-8"?>
<!-- Generator: Adobe Illustrator 19.0.0, SVG Export Plug-In . SVG Version: 6.00 Build 0)  -->
<svg version="1.1" id="Layer_1" xmlns="http://www.w3.org/2000/svg" xmlns:xlink="http://www.w3.org/1999/xlink" x="0px" y="0px"
	 viewBox="0 0 300 300" style="enable-background:new 0 0 300 300;" xml:space="preserve">
<style type="text/css">
	.st0{fill:#024D6A;}
	.st1{fill:#F2E4A9;}
</style>
<circle id="XMLID_6_" class="st0" cx="150.9" cy="145.7" r="133.7"/>
<g id="XMLID_1_">
	<circle id="XMLID_2_" class="st1" cx="92.5" cy="117.6" r="22.4"/>
	<circle id="XMLID_3_" class="st1" cx="150.9" cy="104" r="24.7"/>
	<circle id="XMLID_4_" class="st1" cx="209.4" cy="118.1" r="22.2"/>
	<path id="XMLID_5_" class="st1" d="M108.4,146.9c-4.4-1.6-14.3-4.5-26.3-1.6c-3.1,0.8-14.6,3.6-21.4,12.9c-1.2,1.6-5.4,7.4-6,15.4
		c-0.1,0.8,0,1,0,3.7c0.1,12.6-0.2,23.8-0.2,24c3.5,1.9,8.3,4.2,14.3,6.2c4.9,1.6,13.1,4.3,24,4.4c6.3,0,14.3-1.6,19.5-2.7
		c0.5-0.1,0.8-0.1,1.9-0.6c1.6-0.7-12.9-6.7-12.9-6.7l0,0c0,0,0.4-17.4,0.7-33.4c0-1.8,0.1-5.1,1.2-9.2c1.1-4.5,2.9-7.8,4.1-9.9"/>
	<path id="XMLID_7_" class="st1" d="M108.8,197.6c7.8,4.6,14.8,7.1,19.6,8.5c5.1,1.5,27.4,7.9,48-0.5c0,0,2-0.5,16.8-7.8l0,0
		c0-10.5,0-21.1,0-31.6l0,0c-0.3-2-0.9-4.9-2.2-8.1c-5-12.4-15.6-18.5-18.5-20.1c-14.5-8-32.7-6.5-45.4,1.4
		c-2.9,1.8-11.9,7.3-16.3,18.3c-1.3,3.2-1.8,6-2.1,8"/>
	<path id="XMLID_8_" class="st1" d="M188.9,208.6c0,0,1.1-0.6,1.1-0.6c3.5-2,7-3.9,10.5-5.9l0,0c0.8-20.8-0.4-29.9-0.8-34.6
		c0-0.4-0.1-1.5-0.1-2c-1.2-10-5.5-17.3-6.6-18.1c0,0,0.4-0.2,0.4-0.2c-0.1-0.8,6.9-2.4,8.7-2.8c10.9-2.3,20.9,1.1,20.9,1.1
		c3.3,1.1,11.6,4,17.4,12c3.5,4.9,5.4,10.6,6,13.6c0.3,1.6,1.1,6.5,0.8,4.8l0,0c0,8.4-0.1,16.8-0.1,25.2l0,0c0,0-6.8,3.8-7.6,4.3
		c-8.1,4.5-18.5,5.8-20.6,6.1c-11.7,1.5-21.3-0.5-27.1-2.2"/>
</g>
</svg>
